<svg width="98" height="41" viewBox="0 0 98 41" fill="none" xmlns="http://www.w3.org/2000/svg">
<path d="M9.1825 38.688C8.5585 40.368 6.3985 40.656 5.3905 39.216C5.1025 38.832 4.9585 38.352 5.0065 37.92C5.3905 32.4 5.7745 26.928 6.0145 21.408C5.8705 21.408 5.0065 21.456 4.8625 21.456C2.6545 21.456 1.8865 18.528 3.8065 17.424C4.4785 17.04 5.3425 17.088 6.1585 17.088C6.2545 13.104 6.2545 9.12 5.8225 5.184C5.3425 5.184 3.0385 5.376 2.5585 5.328C0.1585 4.896 0.2065 1.344 2.6065 1.056C4.0465 0.863997 12.3025 0.671997 13.7425 0.575998C16.0465 0.48 18.3025 0.335999 20.6065 0.239997C21.8545 0.143998 26.0305 -2.86102e-06 27.0865 0.623998C28.0465 1.152 28.4785 2.352 28.0945 3.36C27.6625 4.656 26.1265 5.232 24.9265 4.56C24.6865 4.416 23.7265 4.464 23.4385 4.464C21.8065 4.464 11.8225 4.992 10.1425 5.04C10.6225 8.976 10.5745 12.96 10.4785 16.896C13.8385 16.752 17.1985 16.608 20.5585 16.224C20.7985 16.224 21.0865 16.176 21.3265 16.224C23.0545 16.56 23.7265 18.672 22.4785 19.872C22.1425 20.208 21.7105 20.448 21.2785 20.496C17.6305 20.928 13.9825 21.072 10.3345 21.216C10.0945 26.928 9.7585 32.64 9.2785 38.304C9.2785 38.352 9.1825 38.64 9.1825 38.688ZM34.9064 6.768C33.8984 8.544 31.2584 8.064 30.8744 6.096C30.4904 3.744 33.2264 2.112 34.7624 3.936C35.3384 4.656 35.3864 5.952 34.9064 6.768ZM34.8584 32.64C35.7224 34.08 34.6664 35.856 32.9864 35.856C32.3144 35.856 31.5464 35.472 31.1144 34.944C29.9144 33.408 30.1064 27.504 30.1064 25.584C30.1064 24.048 30.3464 15.696 30.4904 14.208C30.5864 13.632 30.9224 13.008 31.3544 12.624C32.9384 11.376 35.2424 12.672 34.9064 14.688C34.8584 14.736 34.7624 15.072 34.7624 15.168C34.4264 20.304 34.3304 25.488 34.5224 30.672C34.5704 31.2 34.6184 31.728 34.6664 32.304C34.6664 32.4 34.8104 32.496 34.8584 32.64ZM43.1463 35.76C42.5223 37.392 40.3623 37.68 39.3543 36.24C39.1143 35.904 38.9223 35.424 38.9703 34.944C39.1623 31.2 39.3543 27.456 39.2583 23.712C39.2103 21.216 39.1623 18.672 38.7303 16.224C38.5383 15.12 38.0583 13.872 38.4902 12.816C39.4023 10.608 42.6663 11.136 42.6663 13.584C42.6663 13.68 42.6183 13.824 42.6663 13.968C42.9062 15.168 43.1463 16.416 43.2903 17.664C44.3463 15.84 45.7863 14.064 47.6103 12.96C48.7143 12.288 50.1063 11.952 51.4023 12.144C52.6503 12.336 53.9463 13.2 54.6663 14.256C56.2023 16.368 56.7303 19.2 56.9703 21.792C57.0663 23.28 57.5943 32.064 57.6903 33.504C57.6903 33.936 57.6903 34.416 57.5463 34.8C56.7303 37.104 53.4663 36.48 53.3703 34.032C53.3223 32.496 52.7943 23.568 52.6503 22.032C52.5063 20.592 52.3143 19.152 51.7863 17.856C51.6423 17.472 51.1623 16.512 50.7303 16.416C50.2983 16.32 49.4343 16.896 49.0503 17.232C47.5623 18.48 46.6503 20.352 45.9303 22.128C44.5863 25.44 43.8663 28.944 43.4823 32.496C43.4343 32.976 43.2903 35.28 43.1463 35.76ZM79.5764 36.72C78.6164 37.248 77.0804 36.912 76.2164 36.192C74.6324 34.8 73.6724 32.784 73.0964 30.768C72.3764 32.304 71.4164 33.888 70.0724 34.944C69.0164 35.808 67.6244 36.48 66.2324 36.48C65.4644 36.48 64.6484 36.24 63.9284 35.904C63.0164 35.424 62.2484 34.56 61.7684 33.696C60.9044 32.064 60.5684 30.192 60.4244 28.416C60.0884 23.232 61.1444 17.904 62.7284 12.96C62.8724 12.48 63.1124 12 63.4004 11.616C64.3124 10.512 65.9444 10.368 67.0484 11.28C68.2004 12.24 68.0084 14.064 66.7124 14.784C66.5684 14.88 66.5204 15.36 66.4724 15.504C65.1764 20.112 64.1684 25.056 64.9364 29.76C65.0324 30.384 65.4164 31.824 66.0404 32.112C66.3284 32.256 66.9044 31.92 67.1924 31.728C68.1044 31.056 68.7764 30 69.2084 28.944C70.1684 26.688 70.7924 24.288 71.3684 21.888C72.0404 19.2 72.6164 16.464 73.1924 13.776C73.2404 13.536 73.4804 12.432 73.5764 12.24C74.1524 10.56 76.3604 10.176 77.4164 11.616C77.6564 12 77.8484 12.48 77.8004 12.912C77.7524 13.584 77.1284 17.712 77.0324 18.384C76.6484 21.744 76.5044 25.152 77.0324 28.464C77.2724 30 77.8484 31.536 78.8564 32.688C80.8244 33.072 81.3044 35.664 79.5764 36.72ZM92.8383 37.488C91.5423 38.592 89.6703 37.92 88.5663 36.576C87.8943 35.712 87.4143 34.704 87.1263 33.648C85.8303 29.28 85.6863 24.576 86.0703 20.064C85.4943 20.16 83.2383 20.544 82.6623 20.448C81.0783 20.16 80.4543 18.336 81.3663 16.992C81.5583 16.704 82.4703 16.08 82.8063 15.936C83.1903 15.84 83.5742 15.792 83.9103 15.84C84.0063 15.888 84.2463 15.984 84.3423 15.984C85.0623 15.84 85.8303 15.744 86.5503 15.648C86.7422 14.16 87.7983 7.824 88.4223 6.48C88.9503 5.328 90.4863 4.8 91.6863 5.232C93.3663 5.808 93.5583 8.016 92.1183 9.072C91.6383 11.04 91.3023 13.104 91.0143 15.12C92.1663 15.024 93.3183 14.928 94.5182 14.976C95.0463 15.024 95.6703 15.12 96.1503 15.408C96.7743 15.744 97.1103 16.176 97.3023 16.896C97.7823 18.768 95.9103 20.208 94.1823 19.392C93.5103 19.104 91.1583 19.44 90.4383 19.488C90.0543 23.28 90.0063 27.216 90.8703 30.96C91.0623 31.872 91.3023 32.832 91.7823 33.648C91.8303 33.744 92.1183 33.792 92.2143 33.792C93.7503 34.368 94.1343 36.432 92.8383 37.488Z" fill="#5A473D"/>
</svg>
